<?xml version="1.0" standalone="no"?>
<!DOCTYPE svg PUBLIC "-//W3C//DTD SVG 20010904//EN"
 "http://www.w3.org/TR/2001/REC-SVG-20010904/DTD/svg10.dtd">
<svg version="1.0" xmlns="http://www.w3.org/2000/svg"
 width="392.000000pt" height="392.000000pt" viewBox="0 0 392.000000 392.000000"
 preserveAspectRatio="xMidYMid meet">
<metadata>
Created by potrace 1.14, written by Peter Selinger 2001-2017
</metadata>
<g transform="translate(0.000000,392.000000) scale(0.100000,-0.100000)"
fill="#000000" stroke="none">
<path d="M765 3909 c-4 -5 -13 -9 -22 -9 -17 0 -713 -691 -730 -725 -7 -13
-11 -408 -11 -1205 -1 -986 2 -1190 13 -1215 8 -16 175 -191 373 -388 l359
-358 719 4 c395 2 735 7 754 11 19 4 80 16 135 27 281 56 598 205 825 388 155
124 330 323 435 492 148 239 255 542 282 806 14 133 6 514 -11 542 -3 3 -7 27
-11 51 -8 57 -28 134 -58 230 -181 566 -619 1024 -1180 1234 -102 38 -253 81
-322 91 -62 8 -97 14 -130 21 -50 11 -1414 13 -1420 3z m1425 -113 c19 -3 82
-16 140 -27 271 -54 564 -191 780 -366 211 -170 373 -374 494 -618 114 -230
162 -396 191 -660 6 -55 6 -281 0 -330 -3 -22 -7 -59 -10 -83 -5 -38 -15 -94
-29 -157 -17 -79 -65 -229 -99 -310 -254 -594 -796 -1012 -1439 -1109 -101
-15 -221 -18 -800 -19 l-627 0 -301 301 -301 301 973 4 c889 3 979 5 1048 21
500 118 859 480 965 971 23 106 28 325 10 435 -68 411 -311 743 -680 927 -210
105 -353 130 -748 131 l-268 1 -32 -29 -31 -28 -2 -798 c-2 -440 -3 -801 -3
-804 -2 -10 -591 -5 -592 5 -1 5 -2 515 -3 1133 l-1 1123 665 -4 c366 -2 681
-7 700 -11z m-1477 -1194 l-2 -1117 30 -27 29 -27 648 2 c644 2 647 2 706 25
209 79 340 245 362 458 21 196 -98 419 -271 511 -114 60 -146 65 -418 68 -137
2 -251 6 -254 9 -5 5 -8 521 -4 581 1 18 508 11 612 -8 686 -123 1096 -820
874 -1483 -93 -278 -318 -528 -588 -654 -79 -37 -207 -79 -292 -96 -22 -4
-489 -9 -1037 -11 l-998 -4 0 1149 0 1150 296 296 c163 163 299 296 303 296 3
0 5 -503 4 -1118z m1348 -236 c115 -30 218 -115 272 -226 30 -61 32 -72 32
-175 0 -103 -2 -114 -32 -177 -53 -113 -153 -196 -273 -228 -37 -10 -349 -17
-497 -11 l-23 1 0 415 0 415 233 0 c169 0 248 -4 288 -14z"/>
</g>
</svg>
